<?xml version="1.0" encoding="utf-8"?>
<!-- Generator: Adobe Illustrator 18.1.1, SVG Export Plug-In . SVG Version: 6.00 Build 0)  -->
<svg version="1.1" xmlns="http://www.w3.org/2000/svg" xmlns:xlink="http://www.w3.org/1999/xlink" x="0px" y="0px"
	 viewBox="-392 41 20 20" enable-background="new -392 41 20 20" xml:space="preserve">
<g id="Tasks_x5F_Active">
</g>
<g id="Tasks_x5F_Inactive_1_">
</g>
<g id="Search_x5F_Inactive">
</g>
<g id="Search_x5F_Active">
	<path fill="#144985" d="M-372.3,59.4l-1.2,1.2c-0.5,0.5-1.2,0.5-1.7,0l-4.8-4.8c-1.2,0.7-2.5,1.1-3.9,1.1c-4.3,0-8.1-3.7-8.1-8.1
		c0-4.3,3.5-7.8,7.8-7.8c4.3,0,8.1,3.7,8.1,8.1c0,1.5-0.4,2.9-1.1,4.1l4.8,4.8C-372,58.3-371.8,58.9-372.3,59.4z M-383.9,54.4
		c3,0,5.4-2.4,5.4-5.4s-2.7-5.7-5.7-5.7s-5.4,2.4-5.4,5.4C-389.6,51.7-386.9,54.4-383.9,54.4z"/>
</g>
<g id="Map_x5F_Inactive">
</g>
<g id="Map-Active">
</g>
</svg>
