<?xml version="1.0" encoding="utf-8"?>
<!-- Generator: Adobe Illustrator 18.1.1, SVG Export Plug-In . SVG Version: 6.00 Build 0)  -->
<svg version="1.1" xmlns="http://www.w3.org/2000/svg" xmlns:xlink="http://www.w3.org/1999/xlink" x="0px" y="0px"
	 viewBox="-257 40 20 20" enable-background="new -257 40 20 20" xml:space="preserve">
<g id="Tasks_x5F_Active">
</g>
<g id="Tasks_x5F_Inactive_1_">
</g>
<g id="Search_x5F_Inactive">
	<path fill="#666666" d="M-237.3,58.4l-1.2,1.2c-0.5,0.5-1.2,0.5-1.7,0l-4.8-4.8c-1.2,0.7-2.5,1.1-3.9,1.1c-4.3,0-8.1-3.7-8.1-8.1
		c0-4.3,3.5-7.8,7.8-7.8s8.1,3.7,8.1,8.1c0,1.5-0.4,2.9-1.1,4.1l4.8,4.8C-237,57.3-236.8,57.9-237.3,58.4z M-248.9,53.4
		c3,0,5.4-2.4,5.4-5.4s-2.7-5.7-5.7-5.7c-3,0-5.4,2.4-5.4,5.4C-254.6,50.7-251.9,53.4-248.9,53.4z"/>
</g>
<g id="Search_x5F_Active">
</g>
<g id="Map_x5F_Inactive">
</g>
<g id="Map-Active">
</g>
</svg>
