<?xml version="1.0" encoding="utf-8"?>
<!-- Generator: Adobe Illustrator 18.1.1, SVG Export Plug-In . SVG Version: 6.00 Build 0)  -->
<svg version="1.1" xmlns="http://www.w3.org/2000/svg" xmlns:xlink="http://www.w3.org/1999/xlink" x="0px" y="0px"
	 viewBox="-144 -62 40 40" enable-background="new -144 -62 40 40" xml:space="preserve">
<g id="Tasks_x5F_Active">
	<path fill="#144985" d="M-122-27h-18c-1.7,0-3-1.3-3-3v-24c0-1.7,1.3-3,3-3h18c1.7,0,3,1.3,3,3v24C-119-28.3-120.3-27-122-27z"/>
	<path fill="#62ABDE" d="M-108-30h-9v-24h9c1.7,0,3,1.3,3,3v18C-105-31.3-106.3-30-108-30z"/>
	<path fill="#FFFFFF" d="M-126-54h4v2h-4V-54z"/>
	<polygon fill="#FFFFFF" points="-119,-38 -119,-40 -143,-40 -143,-38 -129,-38 -129,-34 -143,-34 -143,-32 -119,-32 -119,-34 
		-127,-34 -127,-38 	"/>
</g>
<g id="Tasks_x5F_Inactive_1_">
</g>
<g id="Search_x5F_Inactive">
</g>
<g id="Search_x5F_Active">
</g>
<g id="Map_x5F_Inactive">
</g>
<g id="Map-Active">
</g>
</svg>
