<?xml version="1.0" encoding="utf-8"?>
<!-- Generator: Adobe Illustrator 18.1.1, SVG Export Plug-In . SVG Version: 6.00 Build 0)  -->
<svg version="1.1" xmlns="http://www.w3.org/2000/svg" xmlns:xlink="http://www.w3.org/1999/xlink" x="0px" y="0px"
	 viewBox="-531 30 40 40" enable-background="new -531 30 40 40" xml:space="preserve">
<g id="Tasks_x5F_Active">
</g>
<g id="Tasks_x5F_Inactive_1_">
</g>
<g id="Search_x5F_Inactive">
</g>
<g id="Search_x5F_Active">
</g>
<g id="Map_x5F_Inactive">
	<path fill="#666666" d="M-511,31c-4.4,0-8,3.3-8,7.5c0,4.1,8,13.5,8,13.5s8-9.4,8-13.5C-503,34.3-506.6,31-511,31 M-511,40.7
		c-1.5,0-2.7-1.1-2.7-2.5c0-1.4,1.2-2.5,2.7-2.5s2.7,1.1,2.7,2.5C-508.3,39.5-509.5,40.7-511,40.7"/>
	<g>
		<g>
			<path fill="#666666" d="M-493.8,57.3l-17.2,8l-17.2-8l-2.8,1.3l20,9.4l20-9.4L-493.8,57.3z M-496.5,55.9l-2.8-1.3L-511,60
				l-11.7-5.5l-2.8,1.3l14.4,6.8L-496.5,55.9z M-502.1,53.3l-2.8-1.3l-6.1,2.9l-6.1-2.9l-2.8,1.3l8.9,4.2L-502.1,53.3z"/>
		</g>
	</g>
</g>
<g id="Map-Active">
</g>
</svg>
