<?xml version="1.0" encoding="utf-8"?>
<!-- Generator: Adobe Illustrator 18.1.1, SVG Export Plug-In . SVG Version: 6.00 Build 0)  -->
<svg version="1.1" xmlns="http://www.w3.org/2000/svg" xmlns:xlink="http://www.w3.org/1999/xlink" x="0px" y="0px"
	 viewBox="-90 -62 40 40" enable-background="new -90 -62 40 40" xml:space="preserve">
<g id="Tasks_x5F_Active">
</g>
<g id="Tasks_x5F_Inactive_1_">
	<path fill="#666666" d="M-68-27h-18c-1.7,0-3-1.3-3-3v-24c0-1.7,1.3-3,3-3h18c1.7,0,3,1.3,3,3v24C-65-28.3-66.3-27-68-27z"/>
	<path fill="#666666" d="M-54-30h-9v-24h9c1.7,0,3,1.3,3,3v18C-51-31.3-52.3-30-54-30z"/>
	<path fill="#FFFFFF" d="M-72-54h4v2h-4V-54z"/>
	<polygon fill="#FFFFFF" points="-65,-38 -65,-40 -89,-40 -89,-38 -75,-38 -75,-34 -89,-34 -89,-32 -65,-32 -65,-34 -73,-34 
		-73,-38 	"/>
</g>
<g id="Search_x5F_Inactive">
</g>
<g id="Search_x5F_Active">
</g>
<g id="Map_x5F_Inactive">
</g>
<g id="Map-Active">
</g>
</svg>
